<mxfile host="app.diagrams.net" agent="Mozilla/5.0 (Macintosh; Intel Mac OS X 10_15_7) AppleWebKit/605.1.15 (KHTML, like Gecko) Version/26.0.1 Safari/605.1.15" version="28.1.2">
  <diagram name="第 1 页" id="wwbQbtm_1SgLInfIJogv">
    <mxGraphModel dx="916" dy="257" grid="0" gridSize="10" guides="0" tooltips="1" connect="1" arrows="1" fold="1" page="0" pageScale="1" pageWidth="827" pageHeight="1169" background="#ffffff" math="0" shadow="0">
      <root>
        <mxCell id="0" />
        <mxCell id="1" style="" parent="0" />
        <mxCell id="WzaP2teKXpVmRS6GvhDk-16" value="" style="rounded=0;whiteSpace=wrap;html=1;" vertex="1" parent="1">
          <mxGeometry x="160" y="525" width="343" height="77" as="geometry" />
        </mxCell>
        <mxCell id="WzaP2teKXpVmRS6GvhDk-17" value="云助理应用" style="text;strokeColor=none;align=center;fillColor=none;html=1;verticalAlign=middle;whiteSpace=wrap;rounded=0;fontStyle=0" vertex="1" parent="1">
          <mxGeometry x="165" y="528" width="69" height="30" as="geometry" />
        </mxCell>
        <mxCell id="WzaP2teKXpVmRS6GvhDk-18" value="&lt;span style=&quot;font-weight: 400;&quot;&gt;应用主体&lt;/span&gt;" style="text;strokeColor=none;align=center;fillColor=none;html=1;verticalAlign=middle;whiteSpace=wrap;rounded=0;fontStyle=1" vertex="1" parent="1">
          <mxGeometry x="258" y="552" width="69" height="30" as="geometry" />
        </mxCell>
        <mxCell id="WzaP2teKXpVmRS6GvhDk-7" value="" style="whiteSpace=wrap;html=1;dashed=1;fillColor=none;" vertex="1" parent="1">
          <mxGeometry x="368" y="477" width="412" height="294" as="geometry" />
        </mxCell>
        <mxCell id="WzaP2teKXpVmRS6GvhDk-1" value="aTrust客户端" style="swimlane;whiteSpace=wrap;html=1;strokeColor=default;swimlaneLine=1;" vertex="1" parent="1">
          <mxGeometry x="550" y="498" width="200" height="252" as="geometry" />
        </mxCell>
        <mxCell id="WzaP2teKXpVmRS6GvhDk-3" value="核心服务模块" style="rounded=0;whiteSpace=wrap;html=1;" vertex="1" parent="WzaP2teKXpVmRS6GvhDk-1">
          <mxGeometry x="36" y="48" width="122" height="40" as="geometry" />
        </mxCell>
        <mxCell id="WzaP2teKXpVmRS6GvhDk-5" value="托盘UI" style="rounded=0;whiteSpace=wrap;html=1;dashed=1;" vertex="1" parent="WzaP2teKXpVmRS6GvhDk-1">
          <mxGeometry x="36" y="120" width="122" height="40" as="geometry" />
        </mxCell>
        <mxCell id="WzaP2teKXpVmRS6GvhDk-6" value="沙箱模块" style="rounded=0;whiteSpace=wrap;html=1;dashed=1;" vertex="1" parent="WzaP2teKXpVmRS6GvhDk-1">
          <mxGeometry x="36" y="192" width="122" height="40" as="geometry" />
        </mxCell>
        <mxCell id="WzaP2teKXpVmRS6GvhDk-20" style="edgeStyle=orthogonalEdgeStyle;rounded=0;orthogonalLoop=1;jettySize=auto;html=1;entryX=0;entryY=0.5;entryDx=0;entryDy=0;" edge="1" parent="1" source="WzaP2teKXpVmRS6GvhDk-19" target="WzaP2teKXpVmRS6GvhDk-3">
          <mxGeometry relative="1" as="geometry" />
        </mxCell>
        <mxCell id="WzaP2teKXpVmRS6GvhDk-19" value="aTrust SDK" style="rounded=0;whiteSpace=wrap;html=1;" vertex="1" parent="1">
          <mxGeometry x="384" y="544" width="94" height="44" as="geometry" />
        </mxCell>
        <mxCell id="WzaP2teKXpVmRS6GvhDk-21" value="零信任控制中心" style="rounded=0;whiteSpace=wrap;html=1;" vertex="1" parent="1">
          <mxGeometry x="893" y="524" width="94" height="44" as="geometry" />
        </mxCell>
        <mxCell id="WzaP2teKXpVmRS6GvhDk-22" value="Internet" style="ellipse;shape=cloud;whiteSpace=wrap;html=1;dashed=1;" vertex="1" parent="1">
          <mxGeometry x="793" y="563" width="87" height="39" as="geometry" />
        </mxCell>
        <mxCell id="WzaP2teKXpVmRS6GvhDk-30" value="" style="curved=1;endArrow=classic;html=1;rounded=0;exitX=1;exitY=0.5;exitDx=0;exitDy=0;entryX=0;entryY=0.5;entryDx=0;entryDy=0;" edge="1" parent="1" source="WzaP2teKXpVmRS6GvhDk-3" target="WzaP2teKXpVmRS6GvhDk-21">
          <mxGeometry width="50" height="50" relative="1" as="geometry">
            <mxPoint x="854" y="517" as="sourcePoint" />
            <mxPoint x="904" y="467" as="targetPoint" />
            <Array as="points">
              <mxPoint x="850" y="569" />
              <mxPoint x="783" y="524" />
            </Array>
          </mxGeometry>
        </mxCell>
      </root>
    </mxGraphModel>
  </diagram>
</mxfile>
